<svg width="16" height="16" viewBox="0 0 16 16" fill="none" xmlns="http://www.w3.org/2000/svg">
<g clip-path="url(#clip0_1_23)">
<path d="M14.6667 14.6667L13.3333 13.3333M7.66668 14C8.49838 14 9.32194 13.8362 10.0903 13.5179C10.8587 13.1996 11.5569 12.7331 12.145 12.145C12.7331 11.5569 13.1996 10.8587 13.5179 10.0903C13.8362 9.32194 14 8.49838 14 7.66668C14 6.83497 13.8362 6.01141 13.5179 5.24301C13.1996 4.47462 12.7331 3.77644 12.145 3.18833C11.5569 2.60023 10.8587 2.13372 10.0903 1.81544C9.32194 1.49716 8.49838 1.33334 7.66668 1.33334C5.98697 1.33334 4.37606 2.0006 3.18833 3.18833C2.0006 4.37606 1.33334 5.98697 1.33334 7.66668C1.33334 9.34638 2.0006 10.9573 3.18833 12.145C4.37606 13.3327 5.98697 14 7.66668 14Z" stroke="black" stroke-width="1.2" stroke-linecap="round" stroke-linejoin="round"/>
</g>
<defs>
<clipPath id="clip0_1_23">
<rect width="16" height="16" fill="white"/>
</clipPath>
</defs>
</svg>
